<svg width="144" height="48" viewBox="0 0 144 48" fill="none" xmlns="http://www.w3.org/2000/svg">
<rect width="144" height="48" rx="6" fill="black"/>
<path d="M29.2452 24.3599C29.2583 23.3586 29.5255 22.3768 30.0219 21.5059C30.5183 20.635 31.2277 19.9033 32.0843 19.3787C31.5401 18.6046 30.8222 17.9675 29.9876 17.518C29.1529 17.0685 28.2246 16.8189 27.2762 16.7891C25.2517 16.5779 23.2899 17.9951 22.2584 17.9951C21.2076 17.9951 19.6193 16.8095 17.9106 16.8455C16.8047 16.881 15.7269 17.2012 14.7823 17.7749C13.8377 18.3486 13.0584 19.1563 12.5204 20.1191C10.1899 24.1367 11.9287 30.0419 14.1605 33.2903C15.2776 34.8803 16.5826 36.6563 18.2914 36.5939C19.9628 36.5243 20.587 35.5319 22.6054 35.5319C24.6034 35.5319 25.189 36.5939 26.9315 36.5543C28.7258 36.5243 29.855 34.9559 30.9323 33.3503C31.7354 32.2173 32.3536 30.9651 32.7639 29.6399C31.7216 29.2011 30.8321 28.4664 30.2063 27.5274C29.5806 26.5884 29.2463 25.4868 29.2452 24.3599ZM25.953 14.6519C26.931 13.4831 27.413 11.9808 27.2967 10.4639C25.8023 10.6201 24.422 11.3313 23.4309 12.4559C22.9464 13.0048 22.5753 13.6435 22.3388 14.3353C22.1022 15.0271 22.0049 15.7586 22.0523 16.4879C22.7996 16.4955 23.5389 16.3343 24.2146 16.0163C24.8902 15.6983 25.4846 15.2317 25.953 14.6519V14.6519Z" fill="white"/>
<path d="M50.3733 32.5681H44.671L43.3009 36.5953H40.8848L46.2882 21.6937H48.7983L54.2005 36.5953H51.7434L50.3745 32.5681H50.3733ZM45.2603 30.7081H49.7816L47.5523 24.1729H47.4908L45.2615 30.7093L45.2603 30.7081ZM65.8677 31.1641C65.8677 34.5397 64.0529 36.7081 61.3139 36.7081C60.6204 36.7441 59.9308 36.5851 59.3239 36.2491C58.717 35.9132 58.2173 35.414 57.8819 34.8085H57.8301V40.1893H55.5887V25.7305H57.7578V27.5377H57.7975C58.1483 26.9349 58.6566 26.438 59.2683 26.0999C59.8801 25.7618 60.5724 25.5952 61.2717 25.6177C64.0409 25.6177 65.8665 27.7969 65.8665 31.1641H65.8677ZM63.5661 31.1641C63.5661 28.9645 62.4237 27.5185 60.6824 27.5185C58.9713 27.5185 57.8204 28.9945 57.8204 31.1641C57.8204 33.3529 58.9713 34.8193 60.6824 34.8193C62.4237 34.8193 63.5661 33.3829 63.5661 31.1641ZM77.876 31.1641C77.876 34.5397 76.0612 36.7081 73.3221 36.7081C72.6287 36.7441 71.9391 36.5851 71.3322 36.2491C70.7253 35.9132 70.2255 35.414 69.8901 34.8085H69.8383V40.1893H67.5982V25.7305H69.766V27.5377H69.807C70.1578 26.9349 70.666 26.438 71.2778 26.0999C71.8895 25.7618 72.5819 25.5952 73.2811 25.6177C76.0503 25.6177 77.876 27.7969 77.876 31.1641ZM75.5743 31.1641C75.5743 28.9645 74.4319 27.5185 72.6907 27.5185C70.9795 27.5185 69.8287 28.9945 69.8287 31.1641C69.8287 33.3529 70.9795 34.8193 72.6907 34.8193C74.4319 34.8193 75.5731 33.3829 75.5731 31.1641H75.5743ZM85.8112 32.4433C85.9775 33.9217 87.4187 34.8913 89.3901 34.8913C91.2772 34.8913 92.6353 33.9217 92.6353 32.5885C92.6353 31.4317 91.8159 30.7405 89.8758 30.2653L87.9369 29.7997C85.1894 29.1397 83.9132 27.8593 83.9132 25.7821C83.9132 23.2117 86.163 21.4453 89.3588 21.4453C92.5208 21.4453 94.6887 23.2117 94.761 25.7821H92.5004C92.3654 24.2953 91.1314 23.3977 89.3263 23.3977C87.5223 23.3977 86.2884 24.3061 86.2884 25.6273C86.2884 26.6809 87.0765 27.3013 89.0057 27.7753L90.6542 28.1785C93.7247 28.9021 94.9996 30.1297 94.9996 32.3101C94.9996 35.0977 92.7703 36.8437 89.2239 36.8437C85.9052 36.8437 83.6638 35.1397 83.5192 32.4433H85.8112V32.4433ZM99.8331 23.1601V25.7305H101.908V27.4969H99.8331V33.4861C99.8331 34.4173 100.249 34.8505 101.161 34.8505C101.407 34.8457 101.653 34.8289 101.897 34.7989V36.5545C101.488 36.6301 101.071 36.6649 100.654 36.6577C98.4448 36.6577 97.5832 35.8309 97.5832 33.7237V27.4969H95.9974V25.7305H97.5832V23.1601H99.8331V23.1601ZM103.11 31.1641C103.11 27.7453 105.132 25.5973 108.284 25.5973C111.447 25.5973 113.46 27.7453 113.46 31.1641C113.46 34.5913 111.458 36.7297 108.284 36.7297C105.111 36.7297 103.11 34.5913 103.11 31.1641ZM111.177 31.1641C111.177 28.8193 110.099 27.4345 108.284 27.4345C106.469 27.4345 105.392 28.8289 105.392 31.1641C105.392 33.5185 106.469 34.8913 108.284 34.8913C110.099 34.8913 111.177 33.5185 111.177 31.1641ZM115.306 25.7305H117.442V27.5797H117.494C117.639 27.0026 117.979 26.4926 118.456 26.1353C118.934 25.7781 119.521 25.5953 120.118 25.6177C120.375 25.6165 120.633 25.6441 120.885 25.7005V27.7861C120.559 27.6871 120.219 27.6417 119.879 27.6517C119.554 27.6386 119.229 27.6957 118.928 27.8191C118.627 27.9426 118.356 28.1294 118.135 28.3669C117.913 28.6044 117.745 28.8868 117.643 29.1948C117.542 29.5028 117.508 29.8291 117.545 30.1513V36.5953H115.306V25.7305V25.7305ZM131.21 33.4045C130.909 35.3761 128.981 36.7297 126.513 36.7297C123.339 36.7297 121.368 34.6129 121.368 31.2157C121.368 27.8077 123.349 25.5973 126.417 25.5973C129.437 25.5973 131.334 27.6613 131.334 30.9565V31.7209H123.629V31.8553C123.594 32.2552 123.644 32.6579 123.777 33.0369C123.91 33.4159 124.122 33.7624 124.399 34.0534C124.677 34.3444 125.014 34.5733 125.387 34.7248C125.76 34.8763 126.162 34.947 126.565 34.9321C127.094 34.9814 127.624 34.8593 128.078 34.5841C128.532 34.3089 128.884 33.8952 129.083 33.4045H131.21V33.4045ZM123.64 30.1621H129.094C129.114 29.8026 129.059 29.4429 128.933 29.1055C128.807 28.768 128.613 28.4602 128.361 28.2012C128.11 27.9423 127.808 27.7379 127.474 27.6008C127.139 27.4637 126.78 27.3968 126.419 27.4045C126.054 27.4023 125.692 27.472 125.355 27.6097C125.017 27.7474 124.711 27.9503 124.452 28.2067C124.194 28.463 123.989 28.7678 123.85 29.1035C123.71 29.4391 123.639 29.7989 123.64 30.1621V30.1621Z" fill="white"/>
<path d="M46.8677 17.6375H42.3813V10.4759H43.4984V16.6139H46.8665L46.8677 17.6375ZM52.6447 16.1783C52.4992 16.6724 52.1839 17.0998 51.7538 17.3857C51.3238 17.6716 50.8065 17.7977 50.2925 17.7419C49.9349 17.7514 49.5795 17.6832 49.251 17.5422C48.9225 17.4011 48.6288 17.1905 48.3903 16.925C48.1518 16.6595 47.9742 16.3455 47.8699 16.0048C47.7655 15.6641 47.7369 15.3048 47.786 14.9519C47.7385 14.5982 47.7679 14.2383 47.8722 13.8968C47.9764 13.5553 48.1531 13.2401 48.3903 12.9725C48.6275 12.7049 48.9197 12.4912 49.247 12.3457C49.5743 12.2003 49.9292 12.1266 50.2876 12.1295C51.7976 12.1295 52.7098 13.1567 52.7098 14.8535V15.2255H48.8777V15.2855C48.8609 15.4838 48.8859 15.6834 48.9511 15.8715C49.0163 16.0596 49.1203 16.2321 49.2563 16.3778C49.3923 16.5236 49.5575 16.6394 49.7411 16.7179C49.9247 16.7964 50.1228 16.8358 50.3226 16.8335C50.5787 16.864 50.8381 16.8179 51.0679 16.7013C51.2977 16.5846 51.4875 16.4026 51.6132 16.1783H52.6447V16.1783ZM48.8765 14.4359H51.6168C51.6305 14.2546 51.6059 14.0723 51.5446 13.901C51.4833 13.7297 51.3866 13.573 51.2608 13.4411C51.1351 13.3092 50.983 13.205 50.8143 13.1351C50.6457 13.0653 50.4642 13.0313 50.2816 13.0355C50.0964 13.0333 49.9125 13.068 49.741 13.1376C49.5694 13.2072 49.4135 13.3102 49.2826 13.4408C49.1516 13.5713 49.0483 13.7265 48.9785 13.8975C48.9088 14.0684 48.8741 14.2515 48.8765 14.4359V14.4359ZM55.2331 17.8607C55.2331 18.9671 54.6595 19.4831 53.4834 19.4831C53.4448 19.4831 53.2689 19.4831 53.2448 19.4783V18.5855H53.3942C53.9666 18.5855 54.1655 18.3719 54.1655 17.8499V12.2339H55.2331V17.8607V17.8607ZM54.0064 10.6367C53.9977 10.4985 54.0309 10.3609 54.1017 10.2417C54.1725 10.1225 54.2776 10.0272 54.4034 9.96821C54.5293 9.90921 54.67 9.88921 54.8073 9.91079C54.9447 9.93238 55.0724 9.99457 55.1739 10.0893C55.2753 10.184 55.3459 10.3069 55.3764 10.442C55.4069 10.5771 55.3959 10.7183 55.3449 10.8471C55.2938 10.9759 55.2051 11.0865 55.0903 11.1646C54.9754 11.2426 54.8396 11.2845 54.7005 11.2847C54.6118 11.2894 54.523 11.2762 54.4395 11.2459C54.356 11.2155 54.2795 11.1687 54.2147 11.1081C54.1499 11.0476 54.098 10.9746 54.0622 10.8936C54.0264 10.8126 54.0074 10.7252 54.0064 10.6367V10.6367ZM61.5343 17.6375H60.5028V16.7783H60.4184C60.2814 17.09 60.0494 17.3507 59.7553 17.5237C59.4611 17.6967 59.1197 17.773 58.7796 17.7419C58.5171 17.7606 58.2537 17.7204 58.0088 17.6244C57.7639 17.5284 57.5437 17.3789 57.3645 17.187C57.1852 16.9952 57.0513 16.7657 56.9728 16.5156C56.8943 16.2654 56.873 16.0009 56.9106 15.7415V12.2339H57.983V15.4643C57.983 16.3367 58.3349 16.7543 59.123 16.7543C59.3055 16.7716 59.4896 16.7481 59.6617 16.6854C59.8339 16.6228 59.9899 16.5228 60.1183 16.3925C60.2467 16.2622 60.3443 16.105 60.4039 15.9324C60.4636 15.7598 60.4837 15.5761 60.463 15.3947V12.2339H61.5355V17.6375H61.5343ZM68.3091 14.9327C68.3091 16.6499 67.4366 17.7263 66.0653 17.7263C65.7292 17.7492 65.3935 17.6759 65.0979 17.5152C64.8022 17.3545 64.5588 17.113 64.3963 16.8191H64.3119V19.4339H63.2406V12.2339H64.2722V13.1267H64.3517C64.6891 12.5063 65.3483 12.1271 66.0556 12.1439C67.4366 12.1439 68.3091 13.2155 68.3091 14.9327ZM67.2076 14.9327C67.2076 13.7927 66.6654 13.1015 65.7568 13.1015C64.8554 13.1015 64.2926 13.8059 64.2926 14.9375C64.2926 16.0643 64.8554 16.7687 65.7519 16.7687C66.6642 16.7687 67.2076 16.0787 67.2076 14.9327V14.9327ZM69.6057 10.6355C69.5975 10.4973 69.6311 10.3599 69.7023 10.2409C69.7735 10.122 69.8788 10.0271 70.0048 9.9685C70.1308 9.90991 70.2715 9.89033 70.4088 9.91231C70.546 9.93429 70.6735 9.99681 70.7747 10.0918C70.8758 10.1867 70.946 10.3098 70.9762 10.4449C71.0063 10.5801 70.995 10.7211 70.9437 10.8498C70.8924 10.9785 70.8035 11.0888 70.6884 11.1666C70.5734 11.2444 70.4376 11.2859 70.2986 11.2859C70.2097 11.2905 70.1209 11.2771 70.0374 11.2465C69.9539 11.2159 69.8774 11.1688 69.8127 11.1081C69.7479 11.0473 69.6962 10.9741 69.6607 10.8929C69.6251 10.8117 69.6064 10.7241 69.6057 10.6355ZM69.7659 12.2339H70.8312V17.6375H69.7659V12.2339ZM77.1468 16.1783C77.0014 16.672 76.6864 17.099 76.2569 17.3849C75.8274 17.6707 75.3106 17.7971 74.797 17.7419C74.4394 17.7514 74.084 17.6832 73.7556 17.5422C73.4271 17.4011 73.1334 17.1905 72.8949 16.925C72.6564 16.6595 72.4788 16.3455 72.3744 16.0048C72.27 15.6641 72.2414 15.3048 72.2905 14.9519C72.2431 14.5983 72.2724 14.2385 72.3766 13.8971C72.4808 13.5557 72.6574 13.2406 72.8945 12.973C73.1315 12.7054 73.4235 12.4916 73.7507 12.3461C74.0779 12.2006 74.4327 12.1267 74.791 12.1295C76.3009 12.1295 77.2131 13.1567 77.2131 14.8535V15.2255H73.3811V15.2855C73.3643 15.4838 73.3893 15.6834 73.4545 15.8715C73.5196 16.0596 73.6236 16.2321 73.7596 16.3778C73.8957 16.5236 74.0608 16.6394 74.2444 16.7179C74.428 16.7964 74.6261 16.8358 74.8259 16.8335C75.082 16.864 75.3414 16.8179 75.5712 16.7013C75.801 16.5846 75.9908 16.4026 76.1165 16.1783H77.148H77.1468ZM73.3811 14.4371H76.1213C76.135 14.2558 76.1104 14.0735 76.0491 13.9022C75.9878 13.7309 75.8912 13.5742 75.7654 13.4423C75.6396 13.3104 75.4875 13.2062 75.3189 13.1363C75.1502 13.0665 74.9688 13.0325 74.7862 13.0367C74.6009 13.0345 74.4171 13.0692 74.2455 13.1388C74.0739 13.2084 73.9181 13.3114 73.7871 13.442C73.6562 13.5725 73.5528 13.7278 73.4831 13.8987C73.4133 14.0696 73.3787 14.2527 73.3811 14.4371V14.4371ZM78.7013 10.1243H79.7714V17.6363H78.7001L78.7013 10.1243ZM81.2199 16.1087C81.2199 15.1367 81.9465 14.5751 83.2383 14.4959L84.7085 14.4119V13.9451C84.7085 13.3751 84.3289 13.0523 83.5974 13.0523C82.9985 13.0523 82.5852 13.2707 82.4659 13.6523H81.4296C81.538 12.7247 82.4153 12.1283 83.6468 12.1283C85.0073 12.1283 85.7737 12.8039 85.7737 13.9451V17.6375H84.7434V16.8779H84.6591C84.3084 17.4323 83.6854 17.7563 83.0287 17.7263C82.8008 17.75 82.5705 17.7258 82.3526 17.6554C82.1348 17.5849 81.9341 17.4698 81.7637 17.3174C81.5933 17.1649 81.4568 16.9786 81.3631 16.7705C81.2695 16.5623 81.2207 16.3369 81.2199 16.1087V16.1087ZM85.3809 11.1911H81.9128V10.4231H85.3809V11.1911ZM84.7073 15.6479V15.1955L83.3817 15.2795C82.6346 15.3299 82.2972 15.5831 82.2972 16.0595C82.2972 16.5455 82.7202 16.8275 83.3022 16.8275C83.4728 16.8448 83.6451 16.8278 83.8089 16.7774C83.9728 16.727 84.1247 16.6444 84.2558 16.5343C84.3869 16.4243 84.4944 16.2891 84.572 16.1368C84.6495 15.9845 84.6956 15.8183 84.7073 15.6479V15.6479ZM87.1812 14.9327C87.1812 13.2251 88.0633 12.1439 89.4347 12.1439C89.7736 12.1286 90.1099 12.2096 90.4044 12.3774C90.6989 12.5453 90.9393 12.7931 91.0976 13.0919H91.1784V10.1243H92.2484V17.6363H91.2229V16.7843H91.1386C90.9677 17.0814 90.7185 17.3261 90.418 17.4922C90.1174 17.6582 89.7769 17.7392 89.4335 17.7263C88.0537 17.7263 87.1812 16.6451 87.1812 14.9327V14.9327ZM88.2875 14.9327C88.2875 16.0787 88.8297 16.7687 89.7371 16.7687C90.6409 16.7687 91.1976 16.0691 91.1976 14.9375C91.1976 13.8119 90.6337 13.1015 89.7371 13.1015C88.8358 13.1015 88.2875 13.7975 88.2875 14.9327ZM98.5942 16.1783C98.4488 16.6722 98.1336 17.0994 97.7038 17.3853C97.274 17.6711 96.757 17.7974 96.2431 17.7419C95.8856 17.7514 95.5302 17.6832 95.2017 17.5422C94.8732 17.4011 94.5795 17.1905 94.341 16.925C94.1025 16.6595 93.9249 16.3455 93.8205 16.0048C93.7162 15.6641 93.6876 15.3048 93.7367 14.9519C93.6892 14.5982 93.7186 14.2383 93.8228 13.8968C93.9271 13.5553 94.1038 13.2401 94.341 12.9725C94.5782 12.7049 94.8704 12.4912 95.1977 12.3457C95.525 12.2003 95.8799 12.1266 96.2383 12.1295C97.7482 12.1295 98.6593 13.1567 98.6593 14.8535V15.2255H94.8272V15.2855C94.8104 15.4839 94.8354 15.6836 94.9007 15.8718C94.966 16.06 95.07 16.2325 95.2062 16.3783C95.3424 16.524 95.5076 16.6398 95.6914 16.7182C95.8752 16.7966 96.0734 16.8359 96.2733 16.8335C96.5292 16.8637 96.7883 16.8176 97.0179 16.7009C97.2474 16.5843 97.437 16.4024 97.5627 16.1783H98.5942V16.1783ZM97.97 11.1911H94.5019V10.4231H97.97V11.1911ZM94.8248 14.4371H97.5663C97.58 14.2558 97.5554 14.0735 97.494 13.9022C97.4327 13.7309 97.3361 13.5742 97.2103 13.4423C97.0846 13.3104 96.9325 13.2062 96.7638 13.1363C96.5952 13.0665 96.4137 13.0325 96.2311 13.0367C96.0459 13.0345 95.862 13.0692 95.6904 13.1388C95.5189 13.2084 95.363 13.3114 95.2321 13.442C95.1011 13.5725 94.9977 13.7278 94.928 13.8987C94.8583 14.0696 94.8236 14.2527 94.826 14.4371H94.8248ZM101.549 10.8887V12.2579H102.724V13.1567H101.548V15.9347C101.548 16.5011 101.782 16.7495 102.315 16.7495C102.452 16.7495 102.588 16.7399 102.724 16.7243V17.6123C102.531 17.6471 102.336 17.6651 102.141 17.6675C100.95 17.6675 100.475 17.2499 100.475 16.2083V13.1567H99.6149V12.2579H100.475V10.8887H101.548H101.549ZM107.08 12.2339H108.11V13.0919H108.191C108.468 12.4595 109.119 12.0731 109.811 12.1295C110.075 12.11 110.34 12.1498 110.586 12.246C110.833 12.3422 111.054 12.4924 111.234 12.6854C111.415 12.8784 111.549 13.1093 111.628 13.361C111.706 13.6127 111.727 13.8788 111.688 14.1395V17.6375H110.617V14.4071C110.617 13.5383 110.239 13.1063 109.447 13.1063C109.268 13.0981 109.089 13.1285 108.922 13.1955C108.756 13.2625 108.606 13.3645 108.483 13.4946C108.36 13.6246 108.267 13.7796 108.21 13.9489C108.152 14.1182 108.132 14.2979 108.151 14.4755V17.6375H107.079V12.2339H107.08ZM113.075 14.9327C113.042 14.5783 113.084 14.221 113.198 13.8835C113.312 13.5461 113.495 13.236 113.736 12.973C113.976 12.71 114.27 12.5 114.597 12.3562C114.924 12.2125 115.277 12.1383 115.635 12.1383C115.992 12.1383 116.346 12.2125 116.673 12.3562C117 12.5 117.293 12.71 117.534 12.973C117.775 13.236 117.958 13.5461 118.072 13.8835C118.185 14.221 118.227 14.5783 118.194 14.9327C118.229 15.2882 118.189 15.647 118.076 15.9861C117.963 16.3251 117.78 16.6369 117.539 16.9013C117.298 17.1658 117.004 17.3772 116.676 17.5218C116.348 17.6664 115.993 17.7412 115.635 17.7412C115.276 17.7412 114.921 17.6664 114.593 17.5218C114.265 17.3772 113.971 17.1658 113.73 16.9013C113.489 16.6369 113.307 16.3251 113.194 15.9861C113.081 15.647 113.041 15.2882 113.075 14.9327V14.9327ZM117.092 14.9327C117.092 13.7615 116.564 13.0763 115.636 13.0763C114.706 13.0763 114.181 13.7615 114.181 14.9327C114.181 16.1135 114.706 16.7927 115.636 16.7927C116.564 16.7927 117.092 16.1087 117.092 14.9327Z" fill="white"/>
</svg>
