<svg width="2884" height="891" viewBox="0 0 2884 891" fill="none" xmlns="http://www.w3.org/2000/svg">
<g clip-path="url(#clip0_73_75)">
<path d="M699.021 154.729L691.478 118.272L875.732 58.0236L915.411 179.37L894.491 105.258L1121.93 42.2598L1156.72 166.455L1348.93 120.034L1385.29 270.612L1380.55 216.889L1587.87 198.567L1624.07 608.258L1470.13 621.863L1503.29 759.173L1273.41 814.694L1243.4 690.438L1095.88 731.298L1110.25 775.232L925.994 835.48L914.435 800.13L706.198 877.579L432.658 142.106L650.178 66.2449L699.021 154.729Z" fill="#0092F3"/>
<path d="M379.677 574.737L372.134 538.28L556.389 478.031L596.067 599.377L575.147 525.266L802.585 462.268L837.378 586.463L1029.58 540.042L1065.95 690.62L1061.2 636.897L1268.53 618.575L1304.73 1028.27L1150.78 1041.87L1183.95 1179.18L954.062 1234.7L924.052 1110.45L776.539 1151.31L790.904 1195.24L606.65 1255.49L595.091 1220.14L386.854 1297.59L113.314 562.114L330.834 486.253L379.677 574.737Z" fill="#06C3FF"/>
<path d="M1705.8 284.357L1696.71 240.398L1918.88 167.752L1966.72 314.068L1941.49 224.707L2215.73 148.745L2257.68 298.496L2489.44 242.523L2533.29 424.085L2527.57 359.307L2777.55 337.216L2821.2 831.208L2635.58 847.612L2675.57 1013.18L2398.38 1080.12L2362.19 930.299L2184.33 979.566L2201.65 1032.54L1979.48 1105.19L1965.54 1062.56L1714.46 1155.95L1384.63 269.137L1646.91 177.665L1705.8 284.357Z" fill="#0057A8"/>
</g>
<defs>
<clipPath id="clip0_73_75">
<rect width="2884" height="891" fill="white"/>
</clipPath>
</defs>
</svg>
