<svg width="37" height="37" viewBox="0 0 37 37" fill="none" xmlns="http://www.w3.org/2000/svg">
<path d="M2.3125 33.5312C2.3125 35.4463 3.86621 37 5.78125 37H31.2188C33.1338 37 34.6875 35.4463 34.6875 33.5312V13.875H2.3125V33.5312ZM25.4375 19.3672C25.4375 18.8902 25.8277 18.5 26.3047 18.5H29.1953C29.6723 18.5 30.0625 18.8902 30.0625 19.3672V22.2578C30.0625 22.7348 29.6723 23.125 29.1953 23.125H26.3047C25.8277 23.125 25.4375 22.7348 25.4375 22.2578V19.3672ZM25.4375 28.6172C25.4375 28.1402 25.8277 27.75 26.3047 27.75H29.1953C29.6723 27.75 30.0625 28.1402 30.0625 28.6172V31.5078C30.0625 31.9848 29.6723 32.375 29.1953 32.375H26.3047C25.8277 32.375 25.4375 31.9848 25.4375 31.5078V28.6172ZM16.1875 19.3672C16.1875 18.8902 16.5777 18.5 17.0547 18.5H19.9453C20.4223 18.5 20.8125 18.8902 20.8125 19.3672V22.2578C20.8125 22.7348 20.4223 23.125 19.9453 23.125H17.0547C16.5777 23.125 16.1875 22.7348 16.1875 22.2578V19.3672ZM16.1875 28.6172C16.1875 28.1402 16.5777 27.75 17.0547 27.75H19.9453C20.4223 27.75 20.8125 28.1402 20.8125 28.6172V31.5078C20.8125 31.9848 20.4223 32.375 19.9453 32.375H17.0547C16.5777 32.375 16.1875 31.9848 16.1875 31.5078V28.6172ZM6.9375 19.3672C6.9375 18.8902 7.32773 18.5 7.80469 18.5H10.6953C11.1723 18.5 11.5625 18.8902 11.5625 19.3672V22.2578C11.5625 22.7348 11.1723 23.125 10.6953 23.125H7.80469C7.32773 23.125 6.9375 22.7348 6.9375 22.2578V19.3672ZM6.9375 28.6172C6.9375 28.1402 7.32773 27.75 7.80469 27.75H10.6953C11.1723 27.75 11.5625 28.1402 11.5625 28.6172V31.5078C11.5625 31.9848 11.1723 32.375 10.6953 32.375H7.80469C7.32773 32.375 6.9375 31.9848 6.9375 31.5078V28.6172ZM31.2188 4.625H27.75V1.15625C27.75 0.520312 27.2297 0 26.5938 0H24.2812C23.6453 0 23.125 0.520312 23.125 1.15625V4.625H13.875V1.15625C13.875 0.520312 13.3547 0 12.7188 0H10.4062C9.77031 0 9.25 0.520312 9.25 1.15625V4.625H5.78125C3.86621 4.625 2.3125 6.17871 2.3125 8.09375V11.5625H34.6875V8.09375C34.6875 6.17871 33.1338 4.625 31.2188 4.625Z" fill="#009FFF"/>
</svg>
