<svg width="32" height="31" viewBox="0 0 32 31" fill="none" xmlns="http://www.w3.org/2000/svg">
<g clip-path="url(#clip0_33_2612)">
<path d="M12 14.208H9.33333V16.7913H12V14.208ZM17.3333 14.208H14.6667V16.7913H17.3333V14.208ZM22.6667 14.208H20V16.7913H22.6667V14.208ZM25.3333 5.16634H24V2.58301H21.3333V5.16634H10.6667V2.58301H8V5.16634H6.66667C5.18667 5.16634 4.01333 6.32884 4.01333 7.74967L4 25.833C4 27.2538 5.18667 28.4163 6.66667 28.4163H25.3333C26.8 28.4163 28 27.2538 28 25.833V7.74967C28 6.32884 26.8 5.16634 25.3333 5.16634ZM25.3333 25.833H6.66667V11.6247H25.3333V25.833Z" fill="#28263F"/>
</g>
<defs>
<clipPath id="clip0_33_2612">
<rect width="32" height="31" fill="white"/>
</clipPath>
</defs>
</svg>
