<svg width="31" height="31" viewBox="0 0 31 31" fill="none" xmlns="http://www.w3.org/2000/svg">
<g clip-path="url(#clip0_33_2615)">
<path d="M15.4868 2.58301C8.35676 2.58301 2.58301 8.36967 2.58301 15.4997C2.58301 22.6297 8.35676 28.4163 15.4868 28.4163C22.6297 28.4163 28.4163 22.6297 28.4163 15.4997C28.4163 8.36967 22.6297 2.58301 15.4868 2.58301ZM15.4997 25.833C9.79051 25.833 5.16634 21.2088 5.16634 15.4997C5.16634 9.79051 9.79051 5.16634 15.4997 5.16634C21.2088 5.16634 25.833 9.79051 25.833 15.4997C25.833 21.2088 21.2088 25.833 15.4997 25.833Z" fill="#28263F"/>
<path d="M16.1455 9.04199H14.208V16.792L20.9893 20.8607L21.958 19.272L16.1455 15.8232V9.04199Z" fill="#28263F"/>
</g>
<defs>
<clipPath id="clip0_33_2615">
<rect width="31" height="31" fill="white"/>
</clipPath>
</defs>
</svg>
