<svg width="14" height="59" viewBox="0 0 14 59" fill="none" xmlns="http://www.w3.org/2000/svg">
<path fill-rule="evenodd" clip-rule="evenodd" d="M6.73852 32.8842C4.80329 32.8842 3.23448 31.3154 3.23448 29.3801C3.23448 27.4449 4.80329 25.8761 6.73852 25.8761C8.67374 25.8761 10.2426 27.4449 10.2426 29.3801C10.2426 31.3154 8.67374 32.8842 6.73852 32.8842ZM6.73852 36.1187C3.01693 36.1187 -1.38087e-05 33.1017 -1.3646e-05 29.3801C-1.34833e-05 25.6585 3.01693 22.6416 6.73852 22.6416C10.4601 22.6416 13.4771 25.6585 13.4771 29.3801C13.4771 33.1017 10.4601 36.1187 6.73852 36.1187Z" fill="#0077E4"/>
<path fill-rule="evenodd" clip-rule="evenodd" d="M6.73852 55.5255C4.80329 55.5255 3.23448 53.9567 3.23448 52.0215C3.23448 50.0863 4.80329 48.5175 6.73852 48.5175C8.67374 48.5175 10.2426 50.0863 10.2426 52.0215C10.2426 53.9567 8.67374 55.5255 6.73852 55.5255ZM6.73852 58.76C3.01693 58.76 -1.38087e-05 55.7431 -1.3646e-05 52.0215C-1.34833e-05 48.2999 3.01693 45.283 6.73852 45.283C10.4601 45.283 13.4771 48.2999 13.4771 52.0215C13.4771 55.7431 10.4601 58.76 6.73852 58.76Z" fill="#0077E4"/>
<path fill-rule="evenodd" clip-rule="evenodd" d="M6.73852 10.2426C4.80329 10.2426 3.23448 8.67376 3.23448 6.73853C3.23448 4.80331 4.80329 3.23449 6.73852 3.23449C8.67374 3.23449 10.2426 4.80331 10.2426 6.73853C10.2426 8.67376 8.67374 10.2426 6.73852 10.2426ZM6.73852 13.4771C3.01693 13.4771 -1.38087e-05 10.4601 -1.3646e-05 6.73853C-1.34833e-05 3.01694 3.01693 -4.57226e-07 6.73852 -2.94551e-07C10.4601 -1.31875e-07 13.4771 3.01694 13.4771 6.73853C13.4771 10.4601 10.4601 13.4771 6.73852 13.4771Z" fill="#0077E4"/>
</svg>
