<svg width="56" height="42" viewBox="0 0 56 42" fill="none" xmlns="http://www.w3.org/2000/svg">
<path d="M54.9391 13.8688C55.3656 13.5297 56 13.8469 56 14.3828V36.75C56 39.6484 53.6484 42 50.75 42H5.25C2.35156 42 0 39.6484 0 36.75V14.3938C0 13.8469 0.623437 13.5406 1.06094 13.8797C3.51094 15.7828 6.75938 18.2 17.9156 26.3047C20.2234 27.9891 24.1172 31.5328 28 31.5109C31.9047 31.5438 35.875 27.9234 38.0953 26.3047C49.2516 18.2 52.4891 15.7719 54.9391 13.8688ZM28 28C30.5375 28.0438 34.1906 24.8063 36.0281 23.4719C50.5422 12.9391 51.6469 12.0203 54.9937 9.39531C55.6281 8.90312 56 8.1375 56 7.32812V5.25C56 2.35156 53.6484 0 50.75 0H5.25C2.35156 0 0 2.35156 0 5.25V7.32812C0 8.1375 0.371875 8.89219 1.00625 9.39531C4.35313 12.0094 5.45781 12.9391 19.9719 23.4719C21.8094 24.8063 25.4625 28.0438 28 28Z" fill="white"/>
</svg>
