<svg width="39" height="39" viewBox="0 0 39 39" fill="none" xmlns="http://www.w3.org/2000/svg">
<path d="M19.1667 38.3333C16.5153 38.3333 14.0236 37.8302 11.6917 36.824C9.35972 35.8177 7.33125 34.4521 5.60625 32.7271C3.88125 31.0021 2.51562 28.9736 1.50937 26.6417C0.503125 24.3097 0 21.8181 0 19.1667C0 16.5153 0.503125 14.0236 1.50937 11.6917C2.51562 9.35972 3.88125 7.33125 5.60625 5.60625C7.33125 3.88125 9.35972 2.51562 11.6917 1.50937C14.0236 0.503125 16.5153 0 19.1667 0C21.8181 0 24.3097 0.503125 26.6417 1.50937C28.9736 2.51562 31.0021 3.88125 32.7271 5.60625C34.4521 7.33125 35.8177 9.35972 36.824 11.6917C37.8302 14.0236 38.3333 16.5153 38.3333 19.1667C38.3333 21.8181 37.8302 24.3097 36.824 26.6417C35.8177 28.9736 34.4521 31.0021 32.7271 32.7271C31.0021 34.4521 28.9736 35.8177 26.6417 36.824C24.3097 37.8302 21.8181 38.3333 19.1667 38.3333ZM19.1667 34.5C23.4472 34.5 27.0729 33.0146 30.0437 30.0437C33.0146 27.0729 34.5 23.4472 34.5 19.1667C34.5 18.9431 34.492 18.7115 34.476 18.4719C34.4601 18.2323 34.4521 18.0326 34.4521 17.8729C34.2924 18.7993 33.8611 19.566 33.1583 20.1729C32.4556 20.7799 31.625 21.0833 30.6667 21.0833H26.8333C25.7792 21.0833 24.8767 20.708 24.126 19.9573C23.3753 19.2066 23 18.3042 23 17.25V15.3333H15.3333V11.5C15.3333 10.4458 15.7087 9.5434 16.4594 8.79271C17.2101 8.04201 18.1125 7.66667 19.1667 7.66667H21.0833C21.0833 6.93194 21.283 6.28507 21.6823 5.72604C22.0816 5.16701 22.5688 4.71181 23.1437 4.36042C22.5049 4.20069 21.858 4.07292 21.2031 3.97708C20.5483 3.88125 19.8694 3.83333 19.1667 3.83333C14.8861 3.83333 11.2604 5.31875 8.28958 8.28958C5.31875 11.2604 3.83333 14.8861 3.83333 19.1667H13.4167C15.525 19.1667 17.3299 19.9174 18.8312 21.4187C20.3326 22.9201 21.0833 24.725 21.0833 26.8333V28.75H15.3333V34.0208C15.9722 34.1806 16.6031 34.3003 17.226 34.3802C17.849 34.4601 18.4958 34.5 19.1667 34.5Z" fill="#0077E4"/>
</svg>
