<svg width="162" height="48" viewBox="0 0 162 48" fill="none" xmlns="http://www.w3.org/2000/svg">
<rect width="162" height="48" rx="6" fill="black"/>
<path d="M81.7681 26.0991C80.757 26.1015 79.7694 26.4036 78.93 26.9673C78.0907 27.531 77.4373 28.3309 77.0526 29.2659C76.6679 30.2009 76.5691 31.229 76.7687 32.2202C76.9682 33.2113 77.4572 34.1211 78.1738 34.8343C78.8904 35.5476 79.8025 36.0323 80.7945 36.2272C81.7866 36.4221 82.8143 36.3185 83.7474 35.9294C84.6806 35.5403 85.4775 34.8832 86.0372 34.0412C86.5969 33.1992 86.8944 32.2102 86.8921 31.1991C86.9019 30.5246 86.7758 29.8551 86.5215 29.2303C86.2671 28.6056 85.8897 28.0384 85.4116 27.5625C84.9335 27.0867 84.3645 26.7119 83.7386 26.4605C83.1126 26.2091 82.4425 26.0862 81.7681 26.0991ZM81.7681 34.2951C81.1484 34.3385 80.53 34.1944 79.9932 33.8816C79.4565 33.5688 79.0263 33.1018 78.7585 32.5413C78.4907 31.9807 78.3977 31.3526 78.4917 30.7385C78.5856 30.1244 78.8621 29.5528 79.2852 29.098C79.7083 28.6431 80.2585 28.3261 80.8642 28.1881C81.4699 28.05 82.1031 28.0974 82.6815 28.324C83.2599 28.5506 83.7568 28.946 84.1075 29.4588C84.4582 29.9715 84.6466 30.5779 84.6481 31.1991C84.6674 31.5927 84.6077 31.9862 84.4725 32.3564C84.3374 32.7266 84.1295 33.066 83.861 33.3545C83.5926 33.6431 83.2691 33.875 82.9097 34.0365C82.5502 34.1981 82.1621 34.286 81.7681 34.2951ZM70.5841 26.0991C69.573 26.1015 68.5854 26.4036 67.746 26.9673C66.9067 27.531 66.2533 28.3309 65.8686 29.2659C65.4839 30.2009 65.3851 31.229 65.5847 32.2202C65.7842 33.2113 66.2732 34.1211 66.9898 34.8343C67.7064 35.5476 68.6185 36.0323 69.6106 36.2272C70.6026 36.4221 71.6303 36.3185 72.5634 35.9294C73.4966 35.5403 74.2935 34.8832 74.8532 34.0412C75.4129 33.1992 75.7104 32.2102 75.7081 31.1991C75.7178 30.5246 75.5918 29.8551 75.3375 29.2303C75.0831 28.6056 74.7057 28.0384 74.2276 27.5625C73.7495 27.0867 73.1805 26.7119 72.5546 26.4605C71.9286 26.2091 71.2585 26.0862 70.5841 26.0991ZM70.5841 34.2951C69.9644 34.3385 69.346 34.1944 68.8092 33.8816C68.2725 33.5688 67.8423 33.1018 67.5745 32.5413C67.3067 31.9807 67.2137 31.3526 67.3077 30.7385C67.4016 30.1244 67.6781 29.5528 68.1012 29.098C68.5243 28.6431 69.0745 28.3261 69.6802 28.1881C70.2859 28.05 70.9191 28.0974 71.4975 28.324C72.0759 28.5506 72.5728 28.946 72.9235 29.4588C73.2742 29.9715 73.4626 30.5779 73.4641 31.1991C73.4834 31.5927 73.4237 31.9862 73.2885 32.3564C73.1534 32.7266 72.9455 33.066 72.677 33.3545C72.4086 33.6431 72.0851 33.875 71.7257 34.0365C71.3662 34.1981 70.9781 34.286 70.5841 34.2951ZM57.2881 27.6711V29.8311H62.4721C62.3908 30.8485 61.9679 31.8085 61.2721 32.5551C60.7521 33.0849 60.1266 33.4997 59.4362 33.7725C58.7458 34.0454 58.0058 34.1703 57.2641 34.1391C55.7364 34.1391 54.2713 33.5323 53.1911 32.4521C52.1109 31.3719 51.5041 29.9068 51.5041 28.3791C51.5041 26.8515 52.1109 25.3864 53.1911 24.3062C54.2713 23.226 55.7364 22.6191 57.2641 22.6191C58.7286 22.5973 60.1427 23.1535 61.2001 24.1671L62.7241 22.6431C62.0089 21.9357 61.1597 21.3782 60.2262 21.0032C59.2928 20.6282 58.2939 20.4432 57.2881 20.4591C56.2213 20.4176 55.1571 20.5919 54.1592 20.9715C53.1614 21.3511 52.2504 21.9282 51.481 22.6683C50.7115 23.4084 50.0994 24.2962 49.6813 25.2786C49.2631 26.2609 49.0476 27.3175 49.0476 28.3851C49.0476 29.4527 49.2631 30.5094 49.6813 31.4917C50.0994 32.474 50.7115 33.3618 51.481 34.1019C52.2504 34.842 53.1614 35.4191 54.1592 35.7988C55.1571 36.1784 56.2213 36.3526 57.2881 36.3111C58.3146 36.3521 59.3381 36.1755 60.2916 35.7929C61.245 35.4103 62.1067 34.8303 62.8201 34.0911C64.0802 32.7068 64.7517 30.8861 64.6921 29.0151C64.6964 28.5648 64.6602 28.115 64.5841 27.6711H57.2881ZM111.66 29.3511C111.347 28.4304 110.762 27.6265 109.982 27.0457C109.202 26.465 108.264 26.1349 107.292 26.0991C106.636 26.0978 105.986 26.2312 105.383 26.491C104.78 26.7507 104.237 27.1314 103.787 27.6094C103.337 28.0874 102.99 28.6525 102.768 29.27C102.545 29.8874 102.451 30.544 102.492 31.1991C102.482 32.2945 102.826 33.3639 103.474 34.2474C104.121 35.131 105.037 35.7813 106.085 36.1013C107.133 36.4213 108.256 36.3937 109.287 36.0228C110.317 35.6518 111.201 34.9574 111.804 34.0431L110.064 32.8431C109.805 33.2755 109.437 33.6325 108.997 33.8788C108.557 34.125 108.06 34.252 107.556 34.2471C107.036 34.2686 106.522 34.1322 106.08 33.856C105.639 33.5797 105.292 33.1764 105.084 32.6991L111.912 29.8791L111.66 29.3511ZM104.7 31.0551C104.676 30.6824 104.726 30.3085 104.848 29.9555C104.97 29.6024 105.161 29.2772 105.41 28.999C105.66 28.7207 105.962 28.495 106.299 28.3349C106.637 28.1749 107.003 28.0839 107.376 28.0671C107.763 28.0435 108.148 28.1346 108.483 28.3288C108.818 28.5231 109.088 28.8119 109.26 29.1591L104.7 31.0551ZM99.1561 35.9991H101.4V20.9991H99.1561V35.9991ZM95.4841 27.2391H95.4001C95.0648 26.8574 94.6511 26.5525 94.1872 26.3454C93.7233 26.1383 93.2201 26.0338 92.7121 26.0391C91.4007 26.1027 90.164 26.6684 89.2584 27.619C88.3528 28.5696 87.8477 29.8322 87.8477 31.1451C87.8477 32.458 88.3528 33.7206 89.2584 34.6712C90.164 35.6218 91.4007 36.1875 92.7121 36.2511C93.2208 36.2613 93.7256 36.1591 94.1902 35.9516C94.6549 35.7442 95.068 35.4367 95.4001 35.0511H95.4841V35.7831C95.4841 37.7391 94.4401 38.7831 92.7601 38.7831C92.1989 38.7708 91.654 38.592 91.1946 38.2693C90.7352 37.9467 90.3821 37.4948 90.1801 36.9711L88.2361 37.7751C88.5955 38.6778 89.2204 39.4502 90.0281 39.9901C90.8359 40.5301 91.7885 40.8122 92.7601 40.7991C95.3881 40.7991 97.5601 39.2511 97.5601 35.4831V26.3991H95.4841V27.2391ZM92.9041 34.2951C92.1178 34.2461 91.3799 33.8992 90.8404 33.3251C90.301 32.751 90.0007 31.9929 90.0007 31.2051C90.0007 30.4174 90.301 29.6592 90.8404 29.0851C91.3799 28.511 92.1178 28.1641 92.9041 28.1151C93.2883 28.1317 93.6654 28.2254 94.0127 28.3907C94.36 28.556 94.6706 28.7894 94.9258 29.0771C95.1811 29.3649 95.3759 29.701 95.4986 30.0656C95.6213 30.4301 95.6694 30.8156 95.6401 31.1991C95.6728 31.584 95.6272 31.9714 95.5059 32.3381C95.3846 32.7048 95.1902 33.0431 94.9344 33.3325C94.6787 33.6219 94.3669 33.8564 94.0179 34.0219C93.6689 34.1873 93.29 34.2803 92.9041 34.2951ZM122.172 20.9991H116.796V35.9991H119.04V30.3111H122.172C122.812 30.3571 123.454 30.2708 124.058 30.0576C124.663 29.8444 125.218 29.509 125.687 29.0721C126.156 28.6353 126.531 28.1064 126.787 27.5185C127.042 26.9306 127.175 26.2963 127.175 25.6551C127.175 25.0139 127.042 24.3796 126.787 23.7917C126.531 23.2038 126.156 22.675 125.687 22.2381C125.218 21.8013 124.663 21.4658 124.058 21.2527C123.454 21.0395 122.812 20.9532 122.172 20.9991ZM122.172 28.1991H119.04V23.0871H122.22C122.557 23.0871 122.891 23.1535 123.203 23.2826C123.514 23.4117 123.797 23.6008 124.036 23.8393C124.274 24.0777 124.464 24.3608 124.593 24.6724C124.722 24.984 124.788 25.3179 124.788 25.6551C124.788 25.9924 124.722 26.3263 124.593 26.6379C124.464 26.9494 124.274 27.2325 124.036 27.471C123.797 27.7094 123.514 27.8986 123.203 28.0276C122.891 28.1567 122.557 28.2231 122.22 28.2231L122.172 28.1991ZM136.02 26.0511C135.203 26.0007 134.389 26.191 133.679 26.5983C132.968 27.0057 132.393 27.6123 132.024 28.3431L134.004 29.1711C134.204 28.8104 134.504 28.5153 134.869 28.3216C135.233 28.1278 135.645 28.0436 136.056 28.0791C136.341 28.0459 136.63 28.0696 136.905 28.1491C137.181 28.2286 137.438 28.3621 137.661 28.542C137.885 28.7218 138.07 28.9444 138.206 29.1966C138.343 29.4488 138.428 29.7257 138.456 30.0111V30.1551C137.734 29.7758 136.931 29.5781 136.116 29.5791C133.98 29.5791 131.796 30.7791 131.796 32.9631C131.817 33.4273 131.931 33.8826 132.132 34.3018C132.332 34.721 132.615 35.0956 132.963 35.4035C133.311 35.7113 133.718 35.946 134.158 36.0937C134.599 36.2414 135.065 36.299 135.528 36.2631C136.091 36.2943 136.652 36.1751 137.154 35.9178C137.656 35.6606 138.081 35.2745 138.384 34.7991H138.456V35.9991H140.616V30.2271C140.616 27.5991 138.624 26.0751 136.068 26.0751L136.02 26.0511ZM135.744 34.2711C135.012 34.2711 133.992 33.8991 133.992 32.9991C133.992 31.7991 135.264 31.3911 136.392 31.3911C137.105 31.3735 137.809 31.5476 138.432 31.8951C138.357 32.5468 138.048 33.1491 137.562 33.5904C137.077 34.0317 136.448 34.2821 135.792 34.2951L135.744 34.2711ZM148.488 26.3991L145.92 32.9031H145.848L143.184 26.3991H140.784L144.78 35.4951L142.5 40.5471H144.84L150.984 26.3991H148.488ZM128.328 35.9991H130.56V20.9991H128.328V35.9991Z" fill="white"/>
<path d="M12.5279 9.04885C12.1325 9.51639 11.9307 10.1174 11.9639 10.7288V37.2728C11.9231 37.8853 12.1258 38.4891 12.5279 38.9528L12.6119 39.0488L27.4799 24.1808V23.8208L12.6119 8.96484L12.5279 9.04885Z" fill="url(#paint0_linear)"/>
<path d="M32.4 29.1372L27.48 24.1812V23.8212L32.4 18.8652L32.508 18.9372L38.4 22.2732C40.08 23.2212 40.08 24.7812 38.4 25.7412L32.532 29.0772L32.4 29.1372Z" fill="url(#paint1_linear)"/>
<path d="M32.5438 29.064L27.4798 24L12.5278 38.952C12.8669 39.2538 13.3009 39.4275 13.7547 39.4428C14.2084 39.4582 14.6531 39.3142 15.0118 39.036L32.5438 29.064Z" fill="url(#paint2_linear)"/>
<path d="M32.5438 18.9358L15.0118 8.97577C14.6555 8.69366 14.211 8.54624 13.7567 8.55941C13.3024 8.57257 12.8673 8.7455 12.5278 9.04777L27.4798 23.9998L32.5438 18.9358Z" fill="url(#paint3_linear)"/>
<path opacity="0.2" d="M32.3998 28.9561L15.0118 38.8561C14.6662 39.1169 14.2449 39.2581 13.8118 39.2581C13.3788 39.2581 12.9575 39.1169 12.6118 38.8561L12.5278 38.9401L12.6118 39.0361C12.9575 39.2969 13.3788 39.4381 13.8118 39.4381C14.2449 39.4381 14.6662 39.2969 15.0118 39.0361L32.5438 29.0641L32.3998 28.9561Z" fill="black"/>
<path opacity="0.12" d="M12.5283 38.7838C12.1428 38.3078 11.954 37.7025 12.0003 37.0918V37.2718C11.9595 37.8843 12.1622 38.488 12.5643 38.9518L12.6483 38.8678L12.5283 38.7838Z" fill="black"/>
<path opacity="0.12" d="M38.4001 25.56L32.4001 28.956L32.5081 29.064L38.4001 25.728C38.7479 25.5809 39.0496 25.3428 39.2735 25.0387C39.4974 24.7346 39.6351 24.3758 39.6721 24C39.5971 24.3415 39.4429 24.6606 39.222 24.9315C39.001 25.2025 38.7195 25.4178 38.4001 25.56Z" fill="black"/>
<path opacity="0.25" d="M15.0121 9.14378L38.4001 22.4398C38.7195 22.582 39.001 22.7973 39.2219 23.0682C39.4429 23.3392 39.5971 23.6583 39.6721 23.9998C39.635 23.624 39.4973 23.2652 39.2735 22.9611C39.0496 22.657 38.7479 22.4188 38.4001 22.2718L15.0121 8.97578C13.3441 8.01578 11.9641 8.80778 11.9641 10.7278V10.9078C12.0001 8.98778 13.3441 8.19578 15.0121 9.14378Z" fill="white"/>
<path d="M49.5 15.6V8.29199H50.4V15.6H49.5Z" fill="white" stroke="white" stroke-width="0.2" stroke-miterlimit="10"/>
<path d="M56.4 9.19199H53.052V11.508H56.052V12.384H53.052V14.7H56.4V15.6H52.116V8.29199H56.4V9.19199Z" fill="white" stroke="white" stroke-width="0.2" stroke-miterlimit="10"/>
<path d="M57.72 15.6V8.29199H58.656V14.7H61.812V15.6H57.72Z" fill="white" stroke="white" stroke-width="0.2" stroke-miterlimit="10"/>
<path d="M62.5078 15.5997L65.2678 8.29174H66.3238L69.0838 15.5997H68.0398L67.3318 13.6197H64.2718L63.5998 15.5997H62.5078ZM67.1998 7.36774H64.3678V6.63574H67.1998V7.36774ZM64.5598 12.7437H66.9598L65.7598 9.44374L64.5598 12.7437Z" fill="white" stroke="white" stroke-width="0.2" stroke-miterlimit="10"/>
<path d="M70.032 15.5998V8.29184H72.264C72.76 8.26639 73.256 8.34387 73.7207 8.51941C74.1853 8.69495 74.6087 8.96475 74.964 9.31184C75.3014 9.66114 75.5646 10.0751 75.7379 10.5288C75.9111 10.9825 75.9907 11.4666 75.972 11.9518C75.9891 12.4351 75.9086 12.9169 75.7355 13.3684C75.5623 13.82 75.2999 14.232 74.964 14.5798C74.6087 14.9269 74.1853 15.1967 73.7207 15.3723C73.256 15.5478 72.76 15.6253 72.264 15.5998H70.032ZM70.968 14.6998H72.264C72.8124 14.6831 73.3444 14.5088 73.7964 14.1977C74.2483 13.8865 74.6011 13.4518 74.8125 12.9455C75.0239 12.4392 75.0849 11.8827 74.9884 11.3426C74.8918 10.8024 74.6417 10.3016 74.268 9.89984C74.0016 9.64751 73.6864 9.45239 73.3417 9.3265C72.9971 9.20061 72.6303 9.14661 72.264 9.16784H70.968V14.6998Z" fill="white" stroke="white" stroke-width="0.2" stroke-miterlimit="10"/>
<path d="M81.6 9.19174H78.216V11.5077H81.216V12.3837H78.216V14.6997H81.6V15.5997H77.28V8.29174H81.6V9.19174ZM80.832 7.36774H77.916V6.63574H80.772L80.832 7.36774Z" fill="white" stroke="white" stroke-width="0.2" stroke-miterlimit="10"/>
<path d="M85.4282 15.6H84.4922V9.19199H82.4521V8.29199H87.4681V9.19199H85.4282V15.6Z" fill="white" stroke="white" stroke-width="0.2" stroke-miterlimit="10"/>
<path d="M90.6841 15.6V8.29199H91.8841L95.4841 13.98V12.576V8.29199H96.4201V15.6H95.4481L91.7281 9.59999V11.004V15.6H90.6841Z" fill="white" stroke="white" stroke-width="0.2" stroke-miterlimit="10"/>
<path d="M104.052 14.652C103.702 15.0054 103.285 15.2859 102.826 15.4773C102.366 15.6688 101.874 15.7673 101.376 15.7673C100.879 15.7673 100.386 15.6688 99.9266 15.4773C99.4673 15.2859 99.0505 15.0054 98.7002 14.652C98.347 14.2984 98.0691 13.8768 97.8835 13.4127C97.6979 12.9486 97.6083 12.4517 97.6202 11.952C97.6094 11.4507 97.6995 10.9523 97.885 10.4864C98.0705 10.0206 98.3477 9.5967 98.7002 9.24002C99.4088 8.53288 100.369 8.13574 101.37 8.13574C102.371 8.13574 103.332 8.53288 104.04 9.24002C104.399 9.60234 104.679 10.034 104.865 10.5086C105.051 10.9832 105.137 11.4907 105.12 12C105.127 12.4908 105.036 12.9781 104.853 13.4335C104.67 13.8888 104.397 14.303 104.052 14.652ZM99.3842 14.04C99.6441 14.3023 99.9535 14.5106 100.294 14.6527C100.635 14.7948 101.001 14.8679 101.37 14.8679C101.739 14.8679 102.105 14.7948 102.446 14.6527C102.787 14.5106 103.096 14.3023 103.356 14.04C103.621 13.7715 103.83 13.4527 103.97 13.1024C104.11 12.7521 104.179 12.3773 104.172 12C104.184 11.6131 104.118 11.2277 103.978 10.8669C103.838 10.5061 103.626 10.1772 103.356 9.90002C102.828 9.37607 102.114 9.08207 101.37 9.08207C100.626 9.08207 99.9124 9.37607 99.3842 9.90002C99.1156 10.1778 98.906 10.5071 98.7678 10.8679C98.6296 11.2288 98.5658 11.6139 98.5802 12C98.5712 12.3765 98.6377 12.751 98.7758 13.1014C98.9139 13.4517 99.1207 13.7709 99.3842 14.04Z" fill="white" stroke="white" stroke-width="0.2" stroke-miterlimit="10"/>
<defs>
<linearGradient id="paint0_linear" x1="26.1599" y1="10.4528" x2="6.0239" y2="30.5888" gradientUnits="userSpaceOnUse">
<stop stop-color="#00A0FF"/>
<stop offset="0.01" stop-color="#00A1FF"/>
<stop offset="0.26" stop-color="#00BEFF"/>
<stop offset="0.51" stop-color="#00D2FF"/>
<stop offset="0.76" stop-color="#00DFFF"/>
<stop offset="1" stop-color="#00E3FF"/>
</linearGradient>
<linearGradient id="paint1_linear" x1="40.596" y1="24.0012" x2="11.568" y2="24.0012" gradientUnits="userSpaceOnUse">
<stop stop-color="#FFE000"/>
<stop offset="0.41" stop-color="#FFBD00"/>
<stop offset="0.78" stop-color="#FFA500"/>
<stop offset="1" stop-color="#FF9C00"/>
</linearGradient>
<linearGradient id="paint2_linear" x1="29.7958" y1="26.76" x2="2.48383" y2="54.06" gradientUnits="userSpaceOnUse">
<stop stop-color="#FF3A44"/>
<stop offset="1" stop-color="#C31162"/>
</linearGradient>
<linearGradient id="paint3_linear" x1="8.75983" y1="0.215769" x2="20.9518" y2="12.4078" gradientUnits="userSpaceOnUse">
<stop stop-color="#32A071"/>
<stop offset="0.07" stop-color="#2DA771"/>
<stop offset="0.48" stop-color="#15CF74"/>
<stop offset="0.8" stop-color="#06E775"/>
<stop offset="1" stop-color="#00F076"/>
</linearGradient>
</defs>
</svg>
