<svg width="2122" height="1395" viewBox="0 0 2122 1395" fill="none" xmlns="http://www.w3.org/2000/svg">
<g clip-path="url(#clip0_68_74)">
<path d="M2241 -97H0V1395H2241V-97Z" fill="url(#paint0_linear_68_74)"/>
<path d="M-157.304 760.701C-332.09 788.34 -476.728 949.727 -527.031 1117.63C-578.522 1285.61 -536.074 1460.81 -453.959 1607.43C-372.394 1754.68 -250.449 1873.97 -110.969 1910.9C29.6225 1947.75 187.827 1903.44 335.956 1816.31C484.085 1729.18 621.818 1600.99 635.625 1448.5C649.431 1296.01 538.353 1120.49 380.942 979.669C222.896 838.376 17.4833 732.982 -157.304 760.701Z" fill="#008CF2"/>
<path d="M-45.6055 1082.31C-123.318 1094.6 -187.626 1166.39 -209.991 1241.06C-232.886 1315.78 -214.013 1393.71 -177.502 1458.92C-141.238 1524.42 -87.0196 1577.48 -25.0043 1593.9C37.5046 1610.3 107.845 1590.58 173.705 1551.83C239.565 1513.08 300.804 1456.06 306.942 1388.23C313.08 1320.41 263.694 1242.34 193.706 1179.7C123.437 1116.86 32.1073 1069.98 -45.6055 1082.31Z" fill="#0997FF"/>
</g>
<defs>
<linearGradient id="paint0_linear_68_74" x1="1120.5" y1="-97" x2="1120.5" y2="1395" gradientUnits="userSpaceOnUse">
<stop offset="0.135417" stop-color="#008CF1"/>
<stop offset="1" stop-color="#00B2FF"/>
</linearGradient>
<clipPath id="clip0_68_74">
<rect width="2122" height="1395" fill="white"/>
</clipPath>
</defs>
</svg>
