<svg width="251" height="92" viewBox="0 0 251 92" fill="none" xmlns="http://www.w3.org/2000/svg">
<path fill-rule="evenodd" clip-rule="evenodd" d="M16.2764 0L1.38846 83.9068L1.38977 83.907L0 91.7396V91.7405H54.4818V75.4979H28.7543H19.4772L32.873 0H16.2764ZM109.894 57.9018C109.894 67.6199 101.966 75.4979 92.1873 75.4979C82.4082 75.4979 74.4807 67.6199 74.4807 57.9018C74.4807 48.1837 82.4082 40.3057 92.1873 40.3057C101.966 40.3057 109.894 48.1837 109.894 57.9018ZM126.238 57.9018C126.238 76.5904 110.993 91.7405 92.1873 91.7405C73.3814 91.7405 58.1362 76.5904 58.1362 57.9018C58.1362 39.2132 73.3814 24.0631 92.1873 24.0631C110.993 24.0631 126.238 39.2132 126.238 57.9018ZM234.589 57.9018C234.589 67.6199 226.662 75.4979 216.883 75.4979C207.104 75.4979 199.176 67.6199 199.176 57.9018C199.176 48.1837 207.104 40.3057 216.883 40.3057C226.662 40.3057 234.589 48.1837 234.589 57.9018ZM250.934 57.9018C250.934 76.5904 235.689 91.7405 216.883 91.7405C198.077 91.7405 182.831 76.5904 182.831 57.9018C182.831 39.2132 198.077 24.0631 216.883 24.0631C235.689 24.0631 250.934 39.2132 250.934 57.9018ZM129.738 83.9068L140.356 24.0631H156.953L147.827 75.4979H157.104H182.831V91.7405H128.35V91.7396L129.739 83.907L129.738 83.9068Z" fill="white"/>
</svg>
