<svg width="150" height="55" viewBox="0 0 150 55" fill="none" xmlns="http://www.w3.org/2000/svg">
<path fill-rule="evenodd" clip-rule="evenodd" d="M9.69709 0L0.827213 50.3036L0.827995 50.3037L0 54.9995V55H32.459V45.2623H17.1311H11.604L19.585 0H9.69709ZM64.1976 34.7129C64.1976 40.539 59.4746 45.262 53.6484 45.262C47.8223 45.262 43.0993 40.539 43.0993 34.7129C43.0993 28.8867 47.8223 24.1637 53.6484 24.1637C59.4746 24.1637 64.1976 28.8867 64.1976 34.7129ZM73.9353 34.7129C73.9353 45.917 64.8526 54.9997 53.6484 54.9997C42.4443 54.9997 33.3615 45.917 33.3615 34.7129C33.3615 23.5087 42.4443 14.426 53.6484 14.426C64.8526 14.426 73.9353 23.5087 73.9353 34.7129ZM139.574 34.7129C139.574 40.539 134.851 45.262 129.025 45.262C123.199 45.262 118.476 40.539 118.476 34.7129C118.476 28.8867 123.199 24.1637 129.025 24.1637C134.851 24.1637 139.574 28.8867 139.574 34.7129ZM149.312 34.7129C149.312 45.917 140.229 54.9997 129.025 54.9997C117.821 54.9997 108.738 45.917 108.738 34.7129C108.738 23.5087 117.821 14.426 129.025 14.426C140.229 14.426 149.312 23.5087 149.312 34.7129ZM76.2042 50.3031L82.5303 14.4258H92.4182L86.981 45.2618H92.5081H107.836V54.9995H75.377V54.999L76.2049 50.3032L76.2042 50.3031Z" fill="#009FFF"/>
</svg>
