<svg width="2240" height="956" viewBox="0 0 2240 956" fill="none" xmlns="http://www.w3.org/2000/svg">
<path fill-rule="evenodd" clip-rule="evenodd" d="M58.9222 0L-95.59 876.196L-95.5764 876.199L-110 957.991V958H455.433V788.387H188.423H92.1413L231.169 0H58.9222ZM1008.31 604.632C1008.31 706.112 926.037 788.379 824.546 788.379C723.055 788.379 640.781 706.112 640.781 604.632C640.781 503.151 723.055 420.884 824.546 420.884C926.037 420.884 1008.31 503.151 1008.31 604.632ZM1177.94 604.632C1177.94 799.787 1019.72 957.992 824.546 957.992C629.371 957.992 471.151 799.787 471.151 604.632C471.151 409.476 629.371 251.271 824.546 251.271C1019.72 251.271 1177.94 409.476 1177.94 604.632ZM2321.37 604.632C2321.37 706.112 2239.1 788.379 2137.6 788.379C2036.11 788.379 1953.84 706.112 1953.84 604.632C1953.84 503.151 2036.11 420.884 2137.6 420.884C2239.1 420.884 2321.37 503.151 2321.37 604.632ZM2491 604.632C2491 799.787 2332.78 957.992 2137.6 957.992C1942.43 957.992 1784.21 799.787 1784.21 604.632C1784.21 409.476 1942.43 251.271 2137.6 251.271C2332.78 251.271 2491 409.476 2491 604.632ZM1217.47 876.189L1327.67 251.271H1499.92L1405.2 788.379H1501.48H1768.49V957.992H1203.06V957.983L1217.48 876.191L1217.47 876.189Z" fill="url(#paint0_linear_1_3)" fill-opacity="0.1"/>
<defs>
<linearGradient id="paint0_linear_1_3" x1="1190.5" y1="0" x2="1190.5" y2="958" gradientUnits="userSpaceOnUse">
<stop offset="0.424055" stop-color="white"/>
<stop offset="1" stop-color="#3D3D3D"/>
</linearGradient>
</defs>
</svg>
