<svg width="33" height="33" viewBox="0 0 33 33" fill="none" xmlns="http://www.w3.org/2000/svg">
<path d="M6.875 28.875C6.11875 28.875 5.47135 28.6057 4.93281 28.0672C4.39427 27.5286 4.125 26.8812 4.125 26.125V6.875C4.125 6.11875 4.39427 5.47135 4.93281 4.93281C5.47135 4.39427 6.11875 4.125 6.875 4.125H26.125C26.8813 4.125 27.5286 4.39427 28.0672 4.93281C28.6057 5.47135 28.875 6.11875 28.875 6.875V26.125C28.875 26.8812 28.6057 27.5286 28.0672 28.0672C27.5286 28.6057 26.8813 28.875 26.125 28.875H6.875ZM16.5 8.25C14.7583 8.25 13.2229 8.85729 11.8938 10.0719C10.5646 11.2865 9.9 12.9365 9.9 15.0219C9.9 16.6948 10.5531 18.3448 11.8594 19.9719C13.1656 21.599 14.4031 22.9281 15.5719 23.9594C15.7094 24.074 15.8583 24.1599 16.0188 24.2172C16.1792 24.2745 16.3396 24.3031 16.5 24.3031C16.6604 24.3031 16.8208 24.2745 16.9812 24.2172C17.1417 24.1599 17.2906 24.074 17.4281 23.9594C18.5969 22.9281 19.8344 21.599 21.1406 19.9719C22.4469 18.3448 23.1 16.6948 23.1 15.0219C23.1 12.9365 22.4354 11.2865 21.1063 10.0719C19.7771 8.85729 18.2417 8.25 16.5 8.25ZM16.5 16.8437C16.0188 16.8437 15.612 16.6776 15.2797 16.3453C14.9474 16.013 14.7812 15.6062 14.7812 15.125C14.7812 14.6437 14.9474 14.237 15.2797 13.9047C15.612 13.5724 16.0188 13.4062 16.5 13.4062C16.9812 13.4062 17.388 13.5724 17.7203 13.9047C18.0526 14.237 18.2188 14.6437 18.2188 15.125C18.2188 15.6062 18.0526 16.013 17.7203 16.3453C17.388 16.6776 16.9812 16.8437 16.5 16.8437Z" fill="#28263F"/>
</svg>
