<svg width="44" height="44" viewBox="0 0 44 44" fill="none" xmlns="http://www.w3.org/2000/svg">
<g clip-path="url(#clip0_33_2772)">
<path d="M42.7445 31.0924L33.1195 26.9674C32.7083 26.7922 32.2513 26.7552 31.8173 26.8622C31.3834 26.9691 30.9959 27.2141 30.7132 27.5604L26.4507 32.7682C19.7611 29.6141 14.3775 24.2305 11.2234 17.5409L16.4312 13.2784C16.7782 12.9962 17.0237 12.6088 17.1307 12.1746C17.2377 11.7404 17.2003 11.2832 17.0242 10.8722L12.8992 1.24715C12.706 0.804064 12.3641 0.442299 11.9327 0.224235C11.5013 0.00617161 11.0073 -0.0545223 10.5359 0.0526192L1.59844 2.11512C1.14397 2.22006 0.7385 2.47595 0.448194 2.84102C0.157889 3.20609 -0.00010469 3.65877 5.20455e-08 4.1252C5.20455e-08 26.1682 17.8664 44.0002 39.875 44.0002C40.3416 44.0005 40.7945 43.8426 41.1597 43.5523C41.5249 43.2619 41.781 42.8564 41.8859 42.4018L43.9484 33.4643C44.0549 32.9906 43.9929 32.4946 43.7732 32.0617C43.5534 31.6288 43.1896 31.286 42.7445 31.0924Z" fill="white"/>
</g>
<defs>
<clipPath id="clip0_33_2772">
<rect width="44" height="44" fill="white"/>
</clipPath>
</defs>
</svg>
