<svg width="40" height="40" viewBox="0 0 40 40" fill="none" xmlns="http://www.w3.org/2000/svg">
<path d="M28.2292 24.9167H26.4846L25.8662 24.3204C28.0304 21.8029 29.3333 18.5346 29.3333 14.9792C29.3333 7.05125 22.9071 0.625 14.9792 0.625C7.05125 0.625 0.625 7.05125 0.625 14.9792C0.625 22.9071 7.05125 29.3333 14.9792 29.3333C18.5346 29.3333 21.8029 28.0304 24.3204 25.8662L24.9167 26.4846V28.2292L35.9583 39.2487L39.2487 35.9583L28.2292 24.9167ZM14.9792 24.9167C9.48042 24.9167 5.04167 20.4779 5.04167 14.9792C5.04167 9.48042 9.48042 5.04167 14.9792 5.04167C20.4779 5.04167 24.9167 9.48042 24.9167 14.9792C24.9167 20.4779 20.4779 24.9167 14.9792 24.9167Z" fill="#0077E4"/>
</svg>
