<svg width="46" height="46" viewBox="0 0 46 46" fill="none" xmlns="http://www.w3.org/2000/svg">
<path d="M23 0C10.2944 0 0 10.2944 0 23C0 35.7056 10.2944 46 23 46C35.7056 46 46 35.7056 46 23C46 10.2944 35.7056 0 23 0ZM23 8.90323C27.5073 8.90323 31.1613 12.5573 31.1613 17.0645C31.1613 21.5718 27.5073 25.2258 23 25.2258C18.4927 25.2258 14.8387 21.5718 14.8387 17.0645C14.8387 12.5573 18.4927 8.90323 23 8.90323ZM23 40.8065C17.556 40.8065 12.6778 38.3395 9.41331 34.4815C11.1569 31.1984 14.5698 28.9355 18.5484 28.9355C18.771 28.9355 18.9935 28.9726 19.2069 29.0375C20.4125 29.427 21.6738 29.6774 23 29.6774C24.3262 29.6774 25.5968 29.427 26.7931 29.0375C27.0065 28.9726 27.229 28.9355 27.4516 28.9355C31.4302 28.9355 34.8431 31.1984 36.5867 34.4815C33.3222 38.3395 28.444 40.8065 23 40.8065Z" fill="white"/>
</svg>
